<?xml version="1.0" encoding="UTF-8" standalone="no"?>
<!-- Created with Inkscape (http://www.inkscape.org/) -->

<svg
   width="30mm"
   height="10mm"
   viewBox="0 0 30 10"
   version="1.1"
   id="svg1"
   inkscape:version="1.3.1 (91b66b0783, 2023-11-16)"
   sodipodi:docname="autoalign_path.svg"
   xmlns:inkscape="http://www.inkscape.org/namespaces/inkscape"
   xmlns:sodipodi="http://sodipodi.sourceforge.net/DTD/sodipodi-0.dtd"
   xmlns="http://www.w3.org/2000/svg"
   xmlns:svg="http://www.w3.org/2000/svg">
  <sodipodi:namedview
     id="namedview1"
     pagecolor="#ffffff"
     bordercolor="#000000"
     borderopacity="0.25"
     inkscape:showpageshadow="2"
     inkscape:pageopacity="0.0"
     inkscape:pagecheckerboard="0"
     inkscape:deskcolor="#d1d1d1"
     inkscape:document-units="mm"
     inkscape:zoom="3.8399949"
     inkscape:cx="82.031358"
     inkscape:cy="13.411476"
     inkscape:window-width="1920"
     inkscape:window-height="1017"
     inkscape:window-x="-8"
     inkscape:window-y="-8"
     inkscape:window-maximized="1"
     inkscape:current-layer="layer1" />
  <defs
     id="defs1" />
  <g
     inkscape:label="Layer 1"
     inkscape:groupmode="layer"
     id="layer1">
    <path
       d="M 7.7258677,3.9429321 Q 7.0332827,4.0802286 6.5664743,4.2663418 6.2857791,4.6782315 5.9501652,5.2548772 L 5.7884604,5.5386234 q -0.042714,0.076276 -0.1311946,0.2196745 -0.097633,0.167807 -0.2044193,0.167807 -0.05797,0 -0.097633,-0.045766 -0.039664,-0.039663 -0.039664,-0.08848 0,-0.085429 0.2288277,-0.4851146 Q 5.66947,5.0901213 5.9227059,4.6934867 6.020339,4.5409349 6.0783087,4.4433018 5.8952466,4.4951694 5.7426948,4.5622922 5.66947,4.5958536 5.6206534,4.5958536 q -0.061021,0 -0.094582,-0.054919 -0.024408,-0.033561 -0.024408,-0.079327 0,-0.1037352 0.073225,-0.1464497 Q 5.6938783,4.2419335 6.0020328,4.1473514 6.2308604,4.0741266 6.365106,4.0131059 6.4291777,3.9337789 6.7007199,3.5462975 6.8166592,3.3784906 7.3597434,2.7530284 7.7502759,2.2953731 8.1652167,1.9017896 8.4062485,1.6699109 8.534392,1.6699109 q 0.079327,0 0.1372965,0.064072 0.048817,0.05797 0.048817,0.1281435 0,0.085429 -0.085429,0.2990015 -0.1464497,0.3752773 -0.2806952,0.8024222 -0.1159394,0.3783283 -0.1556028,0.5796967 0.054919,0 0.073225,-0.00305 0.08848,-0.00305 0.1464497,-0.00305 0.1769601,0 0.1769601,0.1342455 0,0.05797 -0.039664,0.1159394 -0.036612,0.054919 -0.085429,0.067123 -0.018306,0.0061 -0.1006841,0.0061 -0.173909,0 -0.259338,0.021357 -0.073225,0.2166234 -0.2318787,1.1075257 -0.082378,0.5919008 -0.079327,0.7261464 0,0.2196745 -0.1311945,0.2196745 -0.1037352,0 -0.1617049,-0.1067862 -0.042714,-0.073225 -0.042714,-0.1983173 0,-0.4210429 0.1495008,-1.1349851 0.076276,-0.3600221 0.1128883,-0.5522373 z M 7.8112966,3.6134203 Q 7.838756,3.5249402 7.9516442,3.1405098 7.9791036,3.0398257 8.0919919,2.7408242 8.2048802,2.4326697 8.2720029,2.2465565 8.0736857,2.377751 7.8692663,2.5943745 7.149222,3.3693375 6.8532716,3.8605541 6.9661599,3.8330948 7.3383862,3.7232575 7.4451724,3.6927472 7.8112966,3.6134203 Z M 9.1995177,5.1602951 Q 9.0683232,5.3433572 8.9676391,5.4531944 8.790679,5.6484607 8.61677,5.6484607 q -0.1495007,0 -0.2318787,-0.1342456 -0.05797,-0.094582 -0.05797,-0.2257766 0,-0.3935835 0.3356138,-0.9031064 Q 8.8181383,4.1473514 8.9706901,4.022259 9.0896805,3.9215748 9.1659563,3.9215748 q 0.042715,0 0.079327,0.036612 0.03051,0.033561 0.03051,0.067123 0,0.05797 -0.1128883,0.1891642 Q 8.9096694,4.5165267 8.7784749,4.7697626 8.6259231,5.065713 8.6259231,5.2335199 q 0,0.042714 0.018306,0.067123 0.021357,0.021357 0.05797,0.021357 0.1556028,0 0.433247,-0.4454511 0.1433986,-0.2318787 0.2471338,-0.5125739 0.054919,-0.1525518 0.1433987,-0.2715421 0.085429,-0.1067863 0.1678069,-0.1067863 0.045765,0 0.082378,0.039664 0.039663,0.042714 0.039663,0.094582 0,0.1098373 -0.2105214,0.4942677 -0.1433987,0.26544 -0.1433987,0.4424001 0,0.1891641 0.1006842,0.3234097 0.027459,0.036612 0.1678069,0.1159393 0.067123,0.039664 0.067123,0.1281435 0,0.054919 -0.048817,0.094582 -0.045765,0.039663 -0.1128883,0.039663 -0.1525517,0 -0.2776442,-0.1220414 Q 9.2452832,5.5264193 9.2147729,5.3189489 9.2086708,5.2914896 9.1995177,5.1602951 Z M 11.088108,3.6622368 q -0.198317,0.3081546 -0.366124,0.689534 -0.241032,0.5430842 -0.241032,0.8115753 0,0.076276 0.03051,0.1159393 0.03356,0.039663 0.09763,0.039663 0.152552,0 0.369175,-0.2867973 0.137297,-0.17696 0.244083,-0.3539201 0.05797,-0.1006841 0.125092,-0.1006841 0.03966,0 0.06712,0.027459 0.02441,0.027459 0.02441,0.054919 0,0.1128883 -0.29595,0.5034208 -0.35392,0.4698594 -0.646819,0.4698594 -0.155603,0 -0.259338,-0.1433986 -0.06407,-0.091531 -0.06407,-0.259338 0,-0.3691753 0.213572,-0.8603919 0.05187,-0.1220414 0.286798,-0.5888498 -0.08238,0.021357 -0.125093,0.021357 -0.06407,0 -0.112888,-0.03051 -0.06712,-0.042715 -0.06712,-0.1067862 0,-0.076276 0.08848,-0.1220414 0.02441,-0.012204 0.225777,-0.039664 0.07323,-0.012204 0.213572,-0.05797 0.106786,-0.1922152 0.347818,-0.521727 0.134246,-0.1830621 0.186113,-0.2379807 0.07323,-0.076276 0.128144,-0.076276 0.03966,0 0.07933,0.042714 0.03661,0.039664 0.03661,0.079327 0,0.079327 -0.170858,0.3142566 -0.112888,0.1525518 -0.167807,0.2471339 0.338665,-0.091531 0.485115,-0.091531 0.167807,0 0.167807,0.1403476 0,0.070174 -0.05797,0.1037352 -0.03051,0.018306 -0.158654,0.03051 -0.05187,-0.00305 -0.460706,0.1159393 -0.112888,0.033561 -0.222726,0.070174 z m 1.586539,-0.00305 q 0.250185,0 0.250185,0.3051035 0,0.4057877 -0.375277,1.0281988 -0.408839,0.6742788 -0.790219,0.6742788 -0.17696,0 -0.259338,-0.1647559 -0.04271,-0.082378 -0.04271,-0.1983173 0,-0.3905325 0.268491,-0.8481877 0.250185,-0.4240939 0.58885,-0.6590236 0.198317,-0.1372966 0.360022,-0.1372966 z m -0.317308,1.1532913 q -0.07628,-0.061021 -0.07628,-0.094582 0,-0.024408 0.09763,-0.1342456 0.274593,-0.3081545 0.274593,-0.4973187 0,-0.024408 -0.01525,-0.048817 -0.02441,-0.045765 -0.07628,-0.045765 -0.09763,0 -0.286798,0.1891642 -0.244082,0.2440828 -0.372226,0.5034208 -0.149501,0.2959504 -0.149501,0.4912166 0,0.051868 0.02746,0.091531 0.03966,0.054919 0.100684,0.054919 0.14645,0 0.314256,-0.2196745 0.07323,-0.091531 0.118991,-0.1891642 0.04577,-0.097633 0.04271,-0.1006841 z M 13.586906,4.373128 q 0.09458,0 0.222726,0.0061 0.262389,0.00915 0.332563,0.00915 0.17696,0 0.23493,0.039663 0.05492,0.036613 0.05492,0.1342456 0,0.091531 -0.05187,0.1433986 -0.03051,0.027459 -0.07323,0.027459 -0.03051,0 -0.09763,-0.0061 -0.112889,-0.012204 -0.598003,-0.012204 -0.295951,0 -0.4424,0.033561 -0.07017,0.015255 -0.106787,0.015255 -0.08238,0 -0.125092,-0.079327 -0.02136,-0.039664 -0.02136,-0.091531 0,-0.1586538 0.146449,-0.1922152 0.109838,-0.027459 0.524778,-0.027459 z M 16.619635,3.9429321 Q 15.92705,4.0802286 15.460242,4.2663418 15.179546,4.6782315 14.843933,5.2548772 l -0.161705,0.2837462 q -0.04271,0.076276 -0.131195,0.2196745 -0.09763,0.167807 -0.204419,0.167807 -0.05797,0 -0.09763,-0.045766 -0.03966,-0.039663 -0.03966,-0.08848 0,-0.085429 0.228828,-0.4851146 0.125092,-0.2166234 0.378328,-0.613258 0.09763,-0.1525518 0.155603,-0.2501849 -0.183062,0.051868 -0.335614,0.1189904 -0.07322,0.033561 -0.122041,0.033561 -0.06102,0 -0.09458,-0.054919 -0.02441,-0.033561 -0.02441,-0.079327 0,-0.1037352 0.07323,-0.1464497 0.118991,-0.073225 0.427145,-0.1678069 0.228828,-0.073225 0.363073,-0.1342455 0.06407,-0.079327 0.335614,-0.4668084 0.11594,-0.1678069 0.659024,-0.7932691 0.390532,-0.4576553 0.805473,-0.8512388 0.241032,-0.2318787 0.369175,-0.2318787 0.07933,0 0.137297,0.064072 0.04882,0.05797 0.04882,0.1281435 0,0.085429 -0.08543,0.2990015 -0.146449,0.3752773 -0.280695,0.8024222 -0.115939,0.3783283 -0.155603,0.5796967 0.05492,0 0.07322,-0.00305 0.08848,-0.00305 0.14645,-0.00305 0.17696,0 0.17696,0.1342455 0,0.05797 -0.03966,0.1159394 -0.03661,0.054919 -0.08543,0.067123 -0.01831,0.0061 -0.100685,0.0061 -0.173909,0 -0.259338,0.021357 -0.07322,0.2166234 -0.231878,1.1075257 -0.08238,0.5919008 -0.07933,0.7261464 0,0.2196745 -0.131195,0.2196745 -0.103735,0 -0.161705,-0.1067862 -0.04271,-0.073225 -0.04271,-0.1983173 0,-0.4210429 0.149501,-1.1349851 0.07628,-0.3600221 0.112888,-0.5522373 z m 0.08543,-0.3295118 q 0.02746,-0.08848 0.140348,-0.4729105 0.02746,-0.1006841 0.140347,-0.3996856 0.112889,-0.3081545 0.180011,-0.4942677 -0.198317,0.1311945 -0.402736,0.347818 -0.720045,0.774963 -1.015995,1.2661796 0.112888,-0.027459 0.485115,-0.1372966 0.106786,-0.03051 0.47291,-0.1098372 z m 1.037352,1.0007395 q -0.09153,0.2379807 -0.137296,0.3844304 -0.04577,0.1464497 -0.04577,0.2044194 0,0.076276 0.07323,0.076276 0.109837,0 0.283746,-0.2074704 0.08238,-0.1006841 0.244083,-0.3630731 0.06407,-0.1037352 0.134246,-0.1037352 0.07933,0 0.07933,0.076276 0,0.1311945 -0.302053,0.5308801 -0.314257,0.4179918 -0.582748,0.4179918 -0.115939,0 -0.189164,-0.097633 -0.05187,-0.070174 -0.05187,-0.1708579 0,-0.170858 0.103735,-0.4729105 0.103735,-0.3020524 0.308154,-0.7352994 0.524778,-1.1014237 1.070914,-1.8153659 0.436298,-0.5735946 0.723095,-0.5735946 0.09153,0 0.149501,0.070174 0.06102,0.070174 0.06102,0.1617049 0,0.4271449 -0.762758,1.4217823 -0.341716,0.4424001 -0.817678,0.8848002 -0.125092,0.1159393 -0.341716,0.3112056 z M 17.95904,4.1290452 q 0.634615,-0.5430843 1.134985,-1.3729658 0.259338,-0.430196 0.259338,-0.5705436 0,-0.067123 -0.05797,-0.067123 -0.167807,0 -0.610207,0.6681766 -0.366124,0.5491864 -0.726146,1.3424555 z m 1.424833,-0.3295118 q 0.05187,0 0.08543,0.039664 0.02441,0.033561 0.02441,0.067123 0,0.054919 -0.08848,0.1830621 -0.317308,0.4912167 -0.451553,0.8085243 -0.143399,0.3264608 -0.253236,0.6712278 -0.04882,0.1525517 -0.152552,0.1525517 -0.06102,0 -0.09763,-0.048817 -0.03356,-0.039664 -0.03356,-0.085429 0,-0.091531 0.195267,-0.610207 0.152552,-0.4088387 0.494267,-0.9031064 0.109838,-0.1617049 0.164756,-0.2166235 0.05492,-0.05797 0.112889,-0.05797 z m 0.579696,-1.131934 q 0.137297,0 0.137297,0.1403476 0,0.1281435 -0.134246,0.2837463 -0.128143,0.1495007 -0.247134,0.1495007 -0.05797,0 -0.09458,-0.042715 -0.03661,-0.039664 -0.03661,-0.097633 0,-0.1464497 0.161705,-0.3112056 0.11899,-0.1220414 0.213572,-0.1220414 z m 0.356972,2.697115 q 0.326461,-0.2379807 0.485115,-0.433247 0.234929,-0.2837462 0.332562,-0.4607063 0.04882,-0.079327 0.100685,-0.079327 0.07322,0 0.07322,0.070174 0,0.082378 -0.115939,0.2745932 -0.360022,0.5857987 -1.080066,1.0220967 -0.335614,0.7017381 -0.494268,0.951923 -0.421043,0.6590236 -0.793269,0.6590236 -0.195266,0 -0.280695,-0.1525518 -0.04882,-0.08848 -0.04882,-0.2013683 0,-0.4790125 0.616309,-0.9183616 0.09763,-0.073225 0.790218,-0.4576552 0.134246,-0.2837463 0.207471,-0.4454512 -0.320359,0.3356139 -0.530881,0.3356139 -0.131194,0 -0.204419,-0.1342455 -0.04576,-0.08848 -0.04576,-0.1830621 0,-0.2196746 0.180011,-0.5644415 0.256287,-0.4973188 0.616309,-0.7871671 0.302052,-0.2410318 0.533931,-0.2410318 0.11899,0 0.204419,0.08848 0.05797,0.05797 0.05797,0.1708579 0,0.1403476 -0.09458,0.347818 0.07017,0.067123 0.07017,0.1006842 0,0.021357 -0.03051,0.061021 -0.08238,0.1128883 -0.26544,0.4240939 -0.161705,0.2715421 -0.283746,0.5522373 z m -0.02136,-0.7047891 q -0.04272,-0.045765 -0.04272,-0.064072 0,-0.027459 0.04577,-0.070174 0.152552,-0.1464497 0.247134,-0.3051036 0.07628,-0.1250924 0.07628,-0.1952662 0,-0.082378 -0.07628,-0.082378 -0.131195,0 -0.375278,0.2501848 -0.289848,0.2959504 -0.451553,0.6620747 -0.07933,0.1830621 -0.07933,0.2806952 0,0.054919 0.02441,0.082378 0.02441,0.027459 0.07017,0.027459 0.106787,0 0.299002,-0.2196745 0.122041,-0.1403476 0.20747,-0.2745931 0.05797,-0.08848 0.05492,-0.091531 z m -0.576646,1.3333023 q -0.402737,0.170858 -0.710891,0.518676 -0.143399,0.1617049 -0.204419,0.3417159 -0.01831,0.054919 -0.01831,0.091531 0,0.039664 0.01831,0.070174 0.03356,0.054919 0.09458,0.054919 0.189164,0 0.4424,-0.4057876 0.219674,-0.3508691 0.378328,-0.6712278 z M 21.87962,4.5805984 q 0.03966,-0.036612 0.07628,-0.073225 0.637667,-0.6224111 0.85429,-0.6224111 0.118991,0 0.118991,0.1311945 0,0.091531 -0.106787,0.2166235 -0.582747,0.6803808 -0.582747,1.1990568 0,0.1678069 0.09153,0.3203587 0.04271,0.070174 0.04271,0.1098372 0,0.036613 -0.03661,0.070174 -0.03966,0.042715 -0.09458,0.042715 -0.125093,0 -0.210522,-0.1586538 -0.08238,-0.1495007 -0.08238,-0.3630732 0,-0.4118897 0.311206,-0.9122595 -0.414941,0.2654401 -0.771912,0.9397188 -0.09153,0.1617049 -0.195266,0.1617049 -0.05187,0 -0.08543,-0.036612 -0.04272,-0.042714 -0.04272,-0.1098373 0,-0.1647559 0.375278,-0.8634429 0.201368,-0.3783284 0.317307,-0.5491863 0.11594,-0.167807 0.198318,-0.167807 0.03966,0 0.07627,0.036612 0.04272,0.042715 0.04272,0.097633 0,0.067123 -0.08848,0.1922152 -0.128144,0.1861131 -0.20747,0.3386649 z"
       id="text1"
       style="font-size:6.24852px;font-family:'Freestyle Script';-inkscape-font-specification:'Freestyle Script, Normal';text-align:center;text-anchor:middle;fill:#aa8800;stroke-width:0.177125"
       aria-label="Auto-Align" />
    <text
       xml:space="preserve"
       style="font-size:1.76866px;font-family:Consolas;-inkscape-font-specification:'Consolas, Normal';text-align:center;text-anchor:middle;fill:#333333;stroke-width:0.501353"
       x="15.06952"
       y="7.9673758"
       id="text2"><tspan
         sodipodi:role="line"
         id="tspan2"
         style="fill:#333333;stroke-width:0.501353"
         x="15.06952"
         y="7.9673758">Automatic Nanopore Alignments</tspan></text>
  </g>
</svg>
